<svg width="11" height="20" viewBox="0 0 11 20" fill="none" xmlns="http://www.w3.org/2000/svg">
<g clip-path="url(#clip0_37_459)">
<path fill-rule="evenodd" clip-rule="evenodd" d="M0.36597 19.708C0.77097 20.098 1.42597 20.098 1.82997 19.708L10.393 11.444C10.5846 11.2619 10.7373 11.0426 10.8416 10.7996C10.9459 10.5566 10.9996 10.295 10.9996 10.0305C10.9996 9.76609 10.9459 9.50442 10.8416 9.26142C10.7373 9.01843 10.5846 8.79918 10.393 8.61702L1.76797 0.292021C1.57222 0.105968 1.313 0.0013942 1.04295 -0.000463112C0.772894 -0.00232043 0.512257 0.098678 0.31397 0.282021C0.215742 0.372561 0.137147 0.482302 0.0830508 0.60445C0.0289551 0.726597 0.000510955 0.858549 -0.000520236 0.992135C-0.00155143 1.12572 0.0248523 1.2581 0.0770559 1.38107C0.129259 1.50403 0.206151 1.61497 0.30297 1.70702L8.19697 9.32402C8.29289 9.41511 8.36927 9.52476 8.42146 9.64631C8.47366 9.76785 8.50057 9.89874 8.50057 10.031C8.50057 10.1633 8.47366 10.2942 8.42146 10.4157C8.36927 10.5373 8.29289 10.6469 8.19697 10.738L0.36597 18.295C0.27008 18.386 0.193719 18.4956 0.141536 18.6171C0.0893537 18.7385 0.062443 18.8693 0.062443 19.0015C0.062443 19.1337 0.0893537 19.2645 0.141536 19.386C0.193719 19.5075 0.27008 19.617 0.36597 19.708Z" fill="#A5A5A5"/>
</g>
<defs>
<clipPath id="clip0_37_459">
<rect width="11" height="20" fill="white"/>
</clipPath>
</defs>
</svg>
