<svg width="11" height="20" viewBox="0 0 11 20" fill="none" xmlns="http://www.w3.org/2000/svg">
<g clip-path="url(#clip0_37_469)">
<path fill-rule="evenodd" clip-rule="evenodd" d="M10.634 0.291979C10.229 -0.0980206 9.57397 -0.0980206 9.16997 0.291979L0.606969 8.55598C0.41529 8.73814 0.262662 8.95739 0.158368 9.20038C0.0540743 9.44338 0.000291824 9.70505 0.000291824 9.96948C0.000291824 10.2339 0.0540743 10.4956 0.158368 10.7386C0.262662 10.9816 0.41529 11.2008 0.606969 11.383L9.23197 19.708C9.42772 19.894 9.68694 19.9986 9.95699 20.0005C10.227 20.0023 10.4877 19.9013 10.686 19.718C10.7842 19.6274 10.8628 19.5177 10.9169 19.3956C10.971 19.2734 10.9994 19.1415 11.0005 19.0079C11.0015 18.8743 10.9751 18.7419 10.9229 18.6189C10.8707 18.496 10.7938 18.385 10.697 18.293L2.80297 10.676C2.70705 10.5849 2.63067 10.4752 2.57848 10.3537C2.52628 10.2322 2.49937 10.1013 2.49937 9.96898C2.49937 9.8367 2.52628 9.70581 2.57848 9.58426C2.63067 9.46272 2.70705 9.35307 2.80297 9.26198L10.634 1.70498C10.7299 1.61398 10.8062 1.50441 10.8584 1.38295C10.9106 1.26149 10.9375 1.13068 10.9375 0.99848C10.9375 0.866283 10.9106 0.73547 10.8584 0.614008C10.8062 0.492546 10.7299 0.382978 10.634 0.291979Z" fill="#A5A5A5"/>
</g>
<defs>
<clipPath id="clip0_37_469">
<rect width="11" height="20" fill="white" transform="matrix(-1 0 0 -1 11 20)"/>
</clipPath>
</defs>
</svg>
