<svg width="31" height="31" viewBox="0 0 31 31" fill="none" xmlns="http://www.w3.org/2000/svg">
<path fill-rule="evenodd" clip-rule="evenodd" d="M10.3333 5.16667C10.3333 4.4533 9.75503 3.875 9.04167 3.875C8.3283 3.875 7.75 4.4533 7.75 5.16667V5.8125H6.45833C5.0316 5.8125 3.875 6.9691 3.875 8.39583V24.5417C3.875 25.9684 5.0316 27.125 6.45833 27.125H24.5417C25.9684 27.125 27.125 25.9684 27.125 24.5417V8.39583C27.125 6.9691 25.9684 5.8125 24.5417 5.8125H23.25V5.16667C23.25 4.4533 22.6717 3.875 21.9583 3.875C21.2449 3.875 20.6667 4.4533 20.6667 5.16667V5.8125H16.7917V5.16667C16.7917 4.4533 16.2134 3.875 15.5 3.875C14.7866 3.875 14.2083 4.4533 14.2083 5.16667V5.8125H10.3333V5.16667ZM14.2083 8.39583H10.3333V9.04167C10.3333 9.75503 9.75503 10.3333 9.04167 10.3333C8.3283 10.3333 7.75 9.75503 7.75 9.04167V8.39583H6.45833V11.625H24.5417V8.39583H23.25V9.04167C23.25 9.75503 22.6717 10.3333 21.9583 10.3333C21.2449 10.3333 20.6667 9.75503 20.6667 9.04167V8.39583H16.7917V9.04167C16.7917 9.75503 16.2134 10.3333 15.5 10.3333C14.7866 10.3333 14.2083 9.75503 14.2083 9.04167V8.39583ZM24.5417 24.5417V14.2083H6.45833V24.5417H24.5417Z" fill="#AAAAAA"/>
</svg>
