<svg width="32" height="32" viewBox="0 0 32 32" fill="none" xmlns="http://www.w3.org/2000/svg">
<path d="M29 13C29.2652 13 29.5196 12.8946 29.7071 12.7071C29.8946 12.5196 30 12.2652 30 12V8C30 6.897 29.103 6 28 6H4C2.897 6 2 6.897 2 8V12C2 12.2652 2.10536 12.5196 2.29289 12.7071C2.48043 12.8946 2.73478 13 3 13C4.654 13 6 14.346 6 16C6 17.654 4.654 19 3 19C2.73478 19 2.48043 19.1054 2.29289 19.2929C2.10536 19.4804 2 19.7348 2 20V24C2 25.103 2.897 26 4 26H28C29.103 26 30 25.103 30 24V20C30 19.7348 29.8946 19.4804 29.7071 19.2929C29.5196 19.1054 29.2652 19 29 19C27.346 19 26 17.654 26 16C26 14.346 27.346 13 29 13ZM28 20.899V24H22V22.5C22 22.3674 21.9473 22.2402 21.8536 22.1464C21.7598 22.0527 21.6326 22 21.5 22H20.5C20.3674 22 20.2402 22.0527 20.1464 22.1464C20.0527 22.2402 20 22.3674 20 22.5V24H4V20.899C6.279 20.435 8 18.415 8 16C8 13.585 6.279 11.565 4 11.101V8H20V9.5C20 9.63261 20.0527 9.75979 20.1464 9.85355C20.2402 9.94732 20.3674 10 20.5 10H21.5C21.6326 10 21.7598 9.94732 21.8536 9.85355C21.9473 9.75979 22 9.63261 22 9.5V8H28V11.101C25.721 11.566 24 13.585 24 16C24 18.415 25.721 20.435 28 20.899Z" fill="#AAAAAA"/>
<path d="M22 12.5V14.5C22 14.6326 21.9473 14.7598 21.8536 14.8536C21.7598 14.9473 21.6326 15 21.5 15H20.5C20.3674 15 20.2402 14.9473 20.1464 14.8536C20.0527 14.7598 20 14.6326 20 14.5V12.5C20 12.3674 20.0527 12.2402 20.1464 12.1464C20.2402 12.0527 20.3674 12 20.5 12H21.5C21.6326 12 21.7598 12.0527 21.8536 12.1464C21.9473 12.2402 22 12.3674 22 12.5ZM21.5 17H20.5C20.3674 17 20.2402 17.0527 20.1464 17.1464C20.0527 17.2402 20 17.3674 20 17.5V19.5C20 19.6326 20.0527 19.7598 20.1464 19.8536C20.2402 19.9473 20.3674 20 20.5 20H21.5C21.6326 20 21.7598 19.9473 21.8536 19.8536C21.9473 19.7598 22 19.6326 22 19.5V17.5C22 17.3674 21.9473 17.2402 21.8536 17.1464C21.7598 17.0527 21.6326 17 21.5 17Z" fill="#AAAAAA"/>
</svg>
