<svg width="42" height="34" viewBox="0 0 42 34" fill="none" xmlns="http://www.w3.org/2000/svg">
<path d="M35.417 9.63629C36.0745 9.43529 36.448 8.73291 36.2469 8.07545L34.7851 3.29392C34.3831 1.979 32.9783 1.23208 31.6634 1.63409L2.97426 10.4052C1.65934 10.8073 0.912414 12.212 1.31443 13.5269L2.77628 18.3085C2.97729 18.9659 3.67967 19.3394 4.33713 19.1384C6.30951 18.5354 8.41665 19.6557 9.01967 21.6281C9.62268 23.6005 8.5023 25.7076 6.52992 26.3107C5.87246 26.5117 5.499 27.214 5.7 27.8715L7.16186 32.653C7.56387 33.9679 8.96863 34.7149 10.2836 34.3129L38.9727 25.5417C40.2876 25.1397 41.0345 23.7349 40.6325 22.42L39.1707 17.6385C38.9697 16.981 38.2673 16.6076 37.6098 16.8086C35.6374 17.4116 33.5303 16.2912 32.9273 14.3188C32.3243 12.3464 33.4447 10.2393 35.417 9.63629Z" fill="#7BF4AE"/>
<path d="M24.674 4.42456L25.7704 8.0107C25.8188 8.16922 25.8023 8.3405 25.7245 8.48686C25.6467 8.63321 25.5139 8.74266 25.3554 8.79113L24.16 9.15659C24.0015 9.20506 23.8302 9.18856 23.6839 9.11074C23.5375 9.03292 23.4281 8.90015 23.3796 8.74163L22.2832 5.15549C22.2347 4.99697 22.2512 4.8257 22.329 4.67934C22.4069 4.53298 22.5396 4.42353 22.6982 4.37507L23.8935 4.0096C24.0521 3.96114 24.2233 3.97763 24.3697 4.05545C24.516 4.13327 24.6255 4.26604 24.674 4.42456ZM27.1827 14.768L25.9873 15.1335C25.8288 15.182 25.6575 15.1655 25.5112 15.0876C25.3648 15.0098 25.2554 14.8771 25.2069 14.7185L24.476 12.3278C24.4275 12.1693 24.444 11.998 24.5218 11.8516C24.5997 11.7053 24.7324 11.5958 24.8909 11.5474L26.0863 11.1819C26.2448 11.1334 26.4161 11.1499 26.5625 11.2277C26.7088 11.3056 26.8183 11.4383 26.8667 11.5968L27.5977 13.9876C27.6461 14.1461 27.6296 14.3174 27.5518 14.4638C27.474 14.6101 27.3412 14.7196 27.1827 14.768ZM29.01 20.7449L27.8147 21.1104C27.6561 21.1589 27.4849 21.1424 27.3385 21.0646C27.1921 20.9867 27.0827 20.854 27.0342 20.6954L26.3033 18.3047C26.2548 18.1462 26.2713 17.9749 26.3492 17.8285C26.427 17.6822 26.5597 17.5727 26.7183 17.5243L27.9136 17.1588C28.0722 17.1103 28.2434 17.1268 28.3898 17.2046C28.5362 17.2825 28.6456 17.4152 28.6941 17.5738L29.425 19.9645C29.4735 20.123 29.457 20.2943 29.3792 20.4407C29.3013 20.587 29.1686 20.6965 29.01 20.7449ZM30.5214 23.5507L31.6178 27.1368C31.6662 27.2953 31.6498 27.4666 31.5719 27.613C31.4941 27.7593 31.3613 27.8688 31.2028 27.9172L30.0074 28.2827C29.8489 28.3311 29.6777 28.3147 29.5313 28.2368C29.3849 28.159 29.2755 28.0262 29.227 27.8677L28.1306 24.2816C28.0822 24.1231 28.0987 23.9518 28.1765 23.8054C28.2543 23.6591 28.3871 23.5496 28.5456 23.5012L29.741 23.1357C29.8995 23.0872 30.0708 23.1037 30.2171 23.1815C30.3635 23.2594 30.4729 23.3921 30.5214 23.5507Z" fill="#53CD86"/>
</svg>
