<svg width="33" height="33" viewBox="0 0 33 33" fill="none" xmlns="http://www.w3.org/2000/svg">
<path d="M24.9682 7.14667C24.6846 6.93649 24.3569 6.79803 24.0116 6.74253C23.6663 6.68702 23.3131 6.71604 22.9807 6.82722C22.1039 7.08084 21.1958 7.20137 20.2852 7.185C18.9394 7.10986 17.6198 6.7716 16.3971 6.18833C14.8866 5.46975 13.2528 5.06588 11.5899 5C7.99994 5 6.62111 6.27778 6.37268 6.45667C6.25381 6.57651 6.15957 6.71971 6.09555 6.87775C6.03154 7.03579 5.99905 7.20546 6.00002 7.37667V26.7222C6.00002 27.0611 6.13089 27.3861 6.36385 27.6258C6.5968 27.8654 6.91276 28 7.24221 28C7.57166 28 7.88761 27.8654 8.12057 27.6258C8.35352 27.3861 8.48439 27.0611 8.48439 26.7222V21.2278C9.4742 20.838 10.5309 20.6597 11.5899 20.7039C12.9357 20.779 14.2552 21.1173 15.4779 21.7006C16.9884 22.4191 18.6222 22.823 20.2852 22.8889C21.7826 22.9471 23.2723 22.6406 24.6328 21.9944C24.9995 21.8173 25.3104 21.5376 25.53 21.1874C25.7497 20.8372 25.8692 20.4306 25.875 20.0139V8.97389C25.8746 8.61736 25.7922 8.26598 25.6346 7.94843C25.477 7.63088 25.2487 7.35615 24.9682 7.14667ZM23.3906 19.8094C22.4005 20.1979 21.3441 20.3761 20.2852 20.3333C18.9377 20.2599 17.6171 19.917 16.3971 19.3239C14.8838 18.6157 13.2511 18.2164 11.5899 18.1483C10.5433 18.1298 9.49902 18.2544 8.48439 18.5189V8.09222C9.47189 7.69271 10.5297 7.50991 11.5899 7.55556C12.9373 7.629 14.258 7.97188 15.4779 8.565C16.9913 9.27321 18.6239 9.67245 20.2852 9.74056C21.3323 9.75646 22.3768 9.62753 23.3906 9.35722V19.8094Z" fill="#AAAAAA"/>
</svg>
