<svg width="60" height="60" viewBox="0 0 60 60" fill="none" xmlns="http://www.w3.org/2000/svg">
<g clip-path="url(#clip0_143_848)">
<path d="M30 0C46.5685 0 60 13.4315 60 30C60 46.5685 46.5685 60 30 60C13.4315 60 0 46.5685 0 30C0 13.4315 13.4315 0 30 0ZM31.8766 3.81605L31.875 13.125H28.125L28.1253 3.81591C15.122 4.7335 4.7335 15.122 3.81591 28.1253L13.125 28.125V31.875L3.81605 31.8766C4.73449 44.879 15.1226 55.2665 28.1253 56.1841L28.125 46.875H31.875L31.8766 56.184C44.8784 55.2655 55.2655 44.8784 56.184 31.8766L46.875 31.875V28.125L56.1841 28.1253C55.2665 15.1226 44.879 4.73449 31.8766 3.81605ZM30 20.625C35.1777 20.625 39.375 24.8223 39.375 30C39.375 35.1777 35.1777 39.375 30 39.375C24.8223 39.375 20.625 35.1777 20.625 30C20.625 24.8223 24.8223 20.625 30 20.625ZM30 24.375C26.8934 24.375 24.375 26.8934 24.375 30C24.375 33.1066 26.8934 35.625 30 35.625C33.1066 35.625 35.625 33.1066 35.625 30C35.625 26.8934 33.1066 24.375 30 24.375Z" fill="black"/>
</g>
<defs>
<clipPath id="clip0_143_848">
<rect width="60" height="60" fill="white"/>
</clipPath>
</defs>
</svg>
