<svg width="33" height="33" viewBox="0 0 33 33" fill="none" xmlns="http://www.w3.org/2000/svg">
<path d="M12.9528 22.6735H20.0289" stroke="#AAAAAA" stroke-width="2.145" stroke-linecap="round" stroke-linejoin="round"/>
<path d="M16.4808 6.97781C16.8529 6.97874 17.2164 7.0902 17.5251 7.29805L25.0916 12.3454C25.3845 12.5459 25.6232 12.8157 25.7864 13.1308C25.9496 13.446 26.0323 13.7966 26.0271 14.1514L26.0172 23.9005C26.016 25.0703 25.1278 26.0221 24.0372 26.0221H8.95288C8.70126 26.021 8.45237 25.9699 8.22063 25.8718C7.98889 25.7738 7.77891 25.6307 7.60285 25.451C7.4002 25.2463 7.24017 25.0035 7.13203 24.7366C7.0239 24.4696 6.9698 24.1839 6.97288 23.8959L6.98278 14.1428C6.97847 13.7896 7.06116 13.4408 7.22356 13.1271C7.38597 12.8135 7.62309 12.5446 7.91399 12.3443L15.4318 7.30085C15.7415 7.09115 16.1068 6.9787 16.4808 6.97781ZM16.4806 4.83276C15.681 4.83356 14.8998 5.07267 14.2368 5.51956L6.71893 10.563C6.13666 10.96 5.66068 11.4938 5.3327 12.1175C5.00473 12.7413 4.83479 13.436 4.83778 14.1407L4.82788 23.8938C4.82551 26.2532 6.67304 28.1672 8.95288 28.1672H24.0372C26.3137 28.1672 28.1598 26.2587 28.1622 23.9028L28.1721 14.1537C28.1765 13.4456 28.0064 12.7474 27.6767 12.1208C27.3471 11.4942 26.868 10.9585 26.282 10.5611L18.7154 5.51375C18.0543 5.07055 17.2765 4.83351 16.4806 4.83276Z" fill="#AAAAAA"/>
</svg>
